<?xml version="1.0" encoding="utf-8"?>
<svg xmlns="http://www.w3.org/2000/svg" viewBox="172.036 293.185 20 20" width="40px" height="40px">
    <path fill-rule="evenodd" clip-rule="evenodd"
        d="M 172.177 295.587 C 172.376 294.115 173.675 293.185 175.026 293.185 L 177.594 293.185 C 178.886 293.185 180.032 294.011 180.44 295.236 L 181.49 298.385 C 181.941 299.738 181.144 301.188 179.761 301.534 C 179.422 301.619 179.306 302.04 179.552 302.287 L 182.934 305.668 C 183.18 305.915 183.602 305.798 183.686 305.46 C 184.032 304.076 185.483 303.28 186.836 303.731 L 189.985 304.78 C 191.21 305.189 192.036 306.335 192.036 307.626 L 192.036 310.195 C 192.036 311.545 191.106 312.845 189.634 313.044 C 188.947 313.137 188.247 313.185 187.536 313.185 C 178.975 313.185 172.036 306.245 172.036 297.685 C 172.036 296.974 172.084 296.274 172.177 295.587 Z"
        fill="#323232" id="object-0"
        transform="matrix(0.9999999999999999, 0, 0, 0.9999999999999999, 0, 2.842170943040401e-14)" />
</svg>
