<?xml version="1.0" encoding="utf-8"?>
<svg xmlns="http://www.w3.org/2000/svg" viewBox="305.471 778.449 20 20" width="40px" height="40px"><path fill-rule="evenodd" clip-rule="evenodd" d="M 310.721 778.837 C 312.02 778.548 313.595 778.449 315.471 778.449 C 317.346 778.449 318.922 778.548 320.221 778.837 C 321.531 779.128 322.62 779.625 323.457 780.462 C 324.295 781.3 324.792 782.389 325.083 783.699 C 325.372 784.998 325.471 786.573 325.471 788.449 C 325.471 790.325 325.372 791.9 325.083 793.199 C 324.792 794.509 324.295 795.598 323.457 796.435 C 322.62 797.273 321.531 797.77 320.221 798.061 C 318.922 798.35 317.346 798.449 315.471 798.449 C 313.595 798.449 312.02 798.35 310.721 798.061 C 309.411 797.77 308.322 797.273 307.484 796.435 C 306.647 795.598 306.15 794.509 305.859 793.199 C 305.57 791.9 305.471 790.325 305.471 788.449 C 305.471 786.573 305.57 784.998 305.859 783.699 C 306.15 782.389 306.647 781.3 307.484 780.462 C 308.322 779.625 309.411 779.128 310.721 778.837 Z M 315.471 782.449 C 313.262 782.449 311.471 784.24 311.471 786.449 C 311.471 788.658 313.262 790.449 315.471 790.449 C 317.68 790.449 319.471 788.658 319.471 786.449 C 319.471 784.24 317.68 782.449 315.471 782.449 Z M 321.848 793.743 C 322.201 794.318 322.076 795.079 321.508 795.442 C 320.991 795.773 320.387 795.975 319.787 796.109 C 318.703 796.349 317.301 796.449 315.471 796.449 C 313.641 796.449 312.238 796.349 311.155 796.109 C 310.566 795.978 309.973 795.781 309.462 795.461 C 308.883 795.098 308.756 794.327 309.117 793.748 C 309.534 793.081 310.108 792.556 310.88 792.183 C 312.051 791.617 313.586 791.449 315.47 791.449 C 317.348 791.449 318.882 791.604 320.051 792.154 C 320.843 792.526 321.428 793.058 321.848 793.743 Z" fill="#323232" id="object-4"/></svg>
