<?xml version="1.0" encoding="utf-8"?>
<svg xmlns="http://www.w3.org/2000/svg" viewBox="599.555 263.053 16 20" width="40px" height="40px">
    <g id="object-1" transform="matrix(1, 0, 0, 1, -1.1368683772161603e-13, 0)">
        <path
            d="M 607.555 263.053 L 607.555 269.553 C 607.555 270.382 608.227 271.053 609.055 271.053 L 615.555 271.053 L 615.555 281.053 C 615.555 282.158 614.66 283.053 613.555 283.053 L 601.555 283.053 C 600.45 283.053 599.555 282.158 599.555 281.053 L 599.555 265.053 C 599.555 263.949 600.45 263.053 601.555 263.053 L 607.555 263.053 Z M 607.555 272.053 C 607.003 272.053 606.555 272.501 606.555 273.053 L 606.555 275.762 L 606.141 275.348 C 605.75 274.957 605.117 274.957 604.727 275.348 C 604.336 275.738 604.336 276.371 604.727 276.762 L 606.848 278.883 C 607.238 279.274 607.872 279.274 608.262 278.883 L 610.383 276.762 C 610.774 276.371 610.774 275.738 610.383 275.348 C 609.993 274.957 609.36 274.957 608.969 275.348 L 608.555 275.762 L 608.555 273.053 C 608.555 272.501 608.107 272.053 607.555 272.053 Z M 609.555 263.097 C 609.931 263.176 610.279 263.363 610.555 263.639 L 614.969 268.053 C 615.245 268.329 615.432 268.677 615.512 269.053 L 609.555 269.053 L 609.555 263.097 Z"
            id="形状结合" style="fill: rgb(50, 50, 50);" stroke="none" stroke-width="1" fill="none"
            fill-rule="evenodd" />
    </g>
</svg>
