<?xml version="1.0" encoding="utf-8"?>
<svg xmlns="http://www.w3.org/2000/svg" viewBox="278.529 205.2639 16.0011 20.0001" width="40px"
    height="40px">
    <path fill-rule="evenodd" clip-rule="evenodd"
        d="M 287.529 217.35 L 287.529 214.264 C 287.529 213.712 287.082 213.264 286.529 213.264 C 285.977 213.264 285.529 213.712 285.529 214.264 L 285.529 217.35 L 284.737 216.557 C 284.346 216.167 283.713 216.167 283.322 216.557 C 282.932 216.948 282.932 217.581 283.322 217.971 L 285.322 219.971 C 285.989 220.638 287.07 220.638 287.737 219.971 L 289.737 217.971 C 290.127 217.581 290.127 216.948 289.737 216.557 C 289.346 216.167 288.713 216.167 288.322 216.557 L 287.529 217.35 Z M 287.011 205.264 C 287.69 205.263 288.293 205.262 288.849 205.493 C 289.405 205.723 289.831 206.15 290.31 206.631 C 291.26 207.583 292.211 208.534 293.163 209.484 C 293.644 209.963 294.071 210.388 294.301 210.945 C 294.532 211.501 294.531 212.104 294.53 212.782 C 294.526 215.298 294.529 217.814 294.529 220.33 C 294.53 221.217 294.53 221.981 294.447 222.592 C 294.359 223.248 294.16 223.876 293.651 224.386 C 293.141 224.895 292.513 225.094 291.857 225.182 C 291.246 225.264 290.482 225.264 289.595 225.264 L 283.464 225.264 C 282.577 225.264 281.813 225.264 281.202 225.182 C 280.546 225.094 279.918 224.895 279.408 224.386 C 278.898 223.876 278.7 223.248 278.612 222.592 C 278.529 221.981 278.529 221.217 278.529 220.33 L 278.529 210.264 C 278.529 210.242 278.529 210.22 278.529 210.199 C 278.529 209.312 278.529 208.548 278.612 207.937 C 278.7 207.281 278.898 206.653 279.408 206.143 C 279.918 205.633 280.546 205.435 281.202 205.347 C 281.813 205.264 282.577 205.264 283.464 205.264 C 284.646 205.264 285.829 205.266 287.011 205.264 Z"
        fill="#323232" id="object-3" />
</svg>
