<?xml version="1.0" encoding="utf-8"?>
<svg xmlns="http://www.w3.org/2000/svg" viewBox="420.723 699.613 20 20" width="40px" height="40px"><g id="object-2"><path d="M 432.723 710.613 C 432.723 710.061 432.275 709.613 431.723 709.613 C 431.171 709.613 430.723 710.061 430.723 710.613 L 430.723 716.199 L 429.43 714.906 C 429.04 714.515 428.407 714.515 428.016 714.906 C 427.625 715.296 427.625 715.929 428.016 716.32 L 431.016 719.32 C 431.203 719.507 431.458 719.613 431.723 719.613 C 431.988 719.613 432.243 719.507 432.43 719.32 L 435.43 716.32 C 435.821 715.929 435.821 715.296 435.43 714.906 C 435.04 714.515 434.406 714.515 434.016 714.906 L 432.723 716.199" fill="#323232" id="object-1"/><path d="M 420.723 707.613 C 420.723 703.229 424.159 699.613 428.473 699.613 C 432.132 699.613 435.161 702.217 435.995 705.68 C 436.017 705.771 436.097 705.836 436.19 705.84 C 438.743 705.957 440.723 708.131 440.723 710.724 C 440.723 713.054 439.124 715.046 436.946 715.511 C 436.828 715.536 436.72 715.445 436.702 715.326 C 436.643 714.913 436.455 714.516 436.137 714.199 C 435.569 713.631 434.745 713.476 434.037 713.734 C 433.892 713.787 433.723 713.688 433.723 713.534 L 433.723 711.179 C 433.723 709.613 433.223 708.613 431.723 708.613 C 430.223 708.613 429.723 709.613 429.723 711.179 L 429.723 713.534 C 429.723 713.688 429.554 713.787 429.409 713.734 C 428.701 713.476 427.877 713.631 427.309 714.199 C 427.028 714.48 426.848 714.824 426.769 715.186 C 426.743 715.304 426.628 715.387 426.512 715.355 C 423.163 714.456 420.723 711.307 420.723 707.613 Z" fill="#323232" id="object-0"/></g></svg>
