<?xml version="1.0" encoding="utf-8"?>
<svg xmlns="http://www.w3.org/2000/svg" viewBox="230.191 213.323 20 20" width="40px" height="40px">
    <path fill-rule="evenodd" clip-rule="evenodd"
        d="M 235.442 213.711 C 236.74 213.423 238.316 213.323 240.191 213.323 C 242.067 213.323 243.643 213.423 244.941 213.711 C 246.251 214.002 247.34 214.499 248.178 215.337 C 249.015 216.175 249.512 217.263 249.804 218.573 C 250.092 219.872 250.191 221.448 250.191 223.323 C 250.191 225.199 250.092 226.775 249.804 228.073 C 249.512 229.383 249.015 230.472 248.178 231.31 C 247.34 232.147 246.251 232.644 244.941 232.936 C 243.643 233.224 242.067 233.323 240.191 233.323 C 238.316 233.323 236.74 233.224 235.442 232.936 C 234.131 232.644 233.043 232.147 232.205 231.31 C 231.367 230.472 230.87 229.383 230.579 228.073 C 230.291 226.775 230.191 225.199 230.191 223.323 C 230.191 221.448 230.291 219.872 230.579 218.573 C 230.87 217.263 231.367 216.175 232.205 215.337 C 233.043 214.499 234.131 214.002 235.442 213.711 Z M 235.723 218.408 L 235.725 218.407 L 235.727 218.406 L 235.732 218.404 L 235.742 218.401 L 235.763 218.394 C 235.778 218.389 235.793 218.384 235.81 218.379 C 235.843 218.37 235.88 218.361 235.92 218.353 C 236.397 218.261 237.195 218.343 238.345 219.124 C 238.373 219.143 238.402 219.163 238.431 219.183 C 238.47 219.174 238.51 219.164 238.549 219.155 C 239.633 218.909 240.75 218.909 241.834 219.155 C 241.873 219.164 241.913 219.174 241.952 219.183 C 241.981 219.163 242.01 219.143 242.038 219.124 C 243.184 218.346 243.978 218.26 244.456 218.353 C 244.498 218.361 244.535 218.37 244.569 218.38 C 244.586 218.384 244.601 218.389 244.616 218.394 L 244.638 218.401 L 244.648 218.405 L 244.653 218.407 L 244.655 218.408 L 244.656 218.408 L 244.658 218.409 C 244.927 218.51 245.139 218.722 245.241 218.991 C 245.249 219.013 245.257 219.034 245.265 219.056 C 245.536 219.806 245.61 220.621 245.488 221.408 C 245.481 221.455 245.473 221.503 245.464 221.55 C 245.494 221.597 245.523 221.645 245.551 221.694 C 245.981 222.444 246.202 223.319 246.191 224.204 C 246.19 226.115 245.688 227.474 244.764 228.376 C 243.86 229.259 242.708 229.545 241.756 229.661 L 241.754 229.661 C 240.7 229.838 239.679 229.847 238.622 229.689 L 238.592 229.685 C 237.643 229.556 236.501 229.255 235.606 228.368 C 234.692 227.462 234.193 226.106 234.192 224.204 C 234.181 223.319 234.402 222.444 234.832 221.694 C 234.86 221.645 234.889 221.597 234.918 221.55 C 234.91 221.503 234.902 221.456 234.894 221.408 C 234.772 220.625 234.844 219.813 235.11 219.065 C 235.118 219.042 235.127 219.018 235.136 218.995 C 235.237 218.723 235.451 218.509 235.723 218.408 Z"
        fill="#323232" id="object-4" />
</svg>
