<?xml version="1.0" encoding="utf-8"?>
<svg xmlns="http://www.w3.org/2000/svg" viewBox="641.147 299.013 16 20" width="40px" height="40px">
    <g id="object-2"
        transform="matrix(0.9999999999999999, 0, 0, 0.9999999999999999, 1.1368683772161603e-13, 5.684341886080802e-14)">
        <path
            d="M 649.147 299.013 L 649.147 305.513 C 649.147 306.293 649.741 306.934 650.502 307.006 L 650.647 307.013 L 657.147 307.013 L 657.147 317.013 C 657.147 318.068 656.331 318.932 655.296 319.008 L 655.147 319.013 L 643.147 319.013 C 642.092 319.013 641.228 318.197 641.152 317.163 L 641.147 317.013 L 641.147 301.013 C 641.147 299.959 641.962 299.095 642.997 299.019 L 643.147 299.013 L 649.147 299.013 Z M 648.439 308.186 L 646.318 310.308 C 645.928 310.698 645.928 311.331 646.318 311.722 C 646.709 312.112 647.342 312.112 647.732 311.722 L 648.147 311.308 L 648.147 314.013 C 648.147 314.566 648.594 315.013 649.147 315.013 C 649.699 315.013 650.147 314.566 650.147 314.013 L 650.147 311.308 L 650.561 311.722 C 650.951 312.112 651.584 312.112 651.975 311.722 C 652.366 311.331 652.366 310.698 651.975 310.308 L 649.854 308.186 C 649.463 307.796 648.83 307.796 648.439 308.186 Z M 651.147 299.057 C 651.469 299.125 651.771 299.272 652.024 299.486 L 652.147 299.599 L 656.561 304.013 C 656.797 304.25 656.968 304.539 657.063 304.854 L 657.103 305.013 L 651.147 305.013 L 651.147 299.057 Z"
            id="形状" style="fill: rgb(50, 50, 50);" stroke="none" stroke-width="1" fill="none"
            fill-rule="evenodd" />
    </g>
</svg>
