<?xml version="1.0" encoding="utf-8"?>
<svg xmlns="http://www.w3.org/2000/svg" viewBox="246.927 247.6309 16.0011 20.0002" width="40px"
    height="40px">
    <path fill-rule="evenodd" clip-rule="evenodd"
        d="M 255.927 256.631 C 255.927 256.079 255.48 255.631 254.927 255.631 C 254.375 255.631 253.927 256.079 253.927 256.631 L 253.927 258.131 L 252.427 258.131 C 251.875 258.131 251.427 258.579 251.427 259.131 C 251.427 259.684 251.875 260.131 252.427 260.131 L 253.927 260.131 L 253.927 261.631 C 253.927 262.184 254.375 262.631 254.927 262.631 C 255.48 262.631 255.927 262.184 255.927 261.631 L 255.927 260.131 L 257.427 260.131 C 257.98 260.131 258.427 259.684 258.427 259.131 C 258.427 258.579 257.98 258.131 257.427 258.131 L 255.927 258.131 L 255.927 256.631 Z M 255.409 247.631 C 256.088 247.63 256.691 247.629 257.247 247.86 C 257.803 248.09 258.229 248.517 258.708 248.998 C 259.658 249.95 260.609 250.901 261.561 251.851 C 262.042 252.33 262.469 252.755 262.699 253.312 C 262.93 253.868 262.929 254.471 262.928 255.149 C 262.924 257.665 262.927 260.181 262.927 262.697 C 262.928 263.584 262.928 264.348 262.845 264.959 C 262.757 265.615 262.558 266.243 262.049 266.753 C 261.539 267.262 260.911 267.461 260.255 267.549 C 259.644 267.631 258.88 267.631 257.993 267.631 L 251.862 267.631 C 250.975 267.631 250.211 267.631 249.6 267.549 C 248.944 267.461 248.316 267.262 247.806 266.753 C 247.296 266.243 247.098 265.615 247.01 264.959 C 246.927 264.348 246.927 263.584 246.927 262.697 L 246.927 252.631 C 246.927 252.609 246.927 252.587 246.927 252.566 C 246.927 251.679 246.927 250.915 247.01 250.304 C 247.098 249.648 247.296 249.02 247.806 248.51 C 248.316 248 248.944 247.802 249.6 247.714 C 250.211 247.631 250.975 247.631 251.862 247.631 C 253.044 247.631 254.227 247.633 255.409 247.631 Z"
        fill="#323232" id="object-5" />
</svg>
