<?xml version="1.0" encoding="utf-8"?>
<svg xmlns="http://www.w3.org/2000/svg" viewBox="196.22 850.482 20 20" width="40px" height="40px"><g id="object-7"><path d="M 207.22 860.482 C 207.493 860.482 207.74 860.591 207.921 860.768 C 207.923 860.771 207.925 860.773 207.927 860.775 L 210.927 863.775 C 211.318 864.165 211.318 864.799 210.927 865.189 C 210.537 865.58 209.904 865.58 209.513 865.189 L 208.22 863.896 L 208.22 869.482 C 208.22 870.034 207.773 870.482 207.22 870.482 C 206.668 870.482 206.22 870.034 206.22 869.482 L 206.22 863.896 L 204.927 865.189 C 204.537 865.58 203.904 865.58 203.513 865.189 C 203.123 864.799 203.123 864.165 203.513 863.775 L 206.513 860.775 C 206.7 860.588 206.955 860.482 207.22 860.482 Z" fill="#323232" id="object-6"/><path d="M 196.22 858.482 C 196.22 854.098 199.656 850.482 203.97 850.482 C 207.629 850.482 210.659 853.086 211.492 856.55 C 211.514 856.64 211.594 856.705 211.687 856.709 C 214.24 856.826 216.22 859.001 216.22 861.593 C 216.22 864.259 214.128 866.482 211.47 866.482 L 211.225 866.482 C 211.156 866.482 211.1 866.426 211.1 866.357 C 211.1 866.309 211.128 866.266 211.17 866.243 C 211.337 866.153 211.493 866.037 211.634 865.896 C 212.416 865.115 212.416 863.849 211.634 863.068 L 208.635 860.069 C 208.273 859.706 207.773 859.482 207.22 859.482 C 206.667 859.482 206.167 859.706 205.805 860.069 L 202.806 863.068 C 202.025 863.849 202.025 865.115 202.806 865.896 C 202.966 866.056 203.147 866.184 203.34 866.278 C 203.372 866.294 203.393 866.326 203.393 866.362 C 203.393 866.415 203.347 866.457 203.294 866.452 C 199.303 866.098 196.22 862.634 196.22 858.482 Z" fill="#323232" id="object-5"/></g></svg>
