<?xml version="1.0" encoding="utf-8"?>
<svg xmlns="http://www.w3.org/2000/svg" viewBox="-90.119 220.092 20 20" width="40px" height="40px">
    <path fill-rule="evenodd" clip-rule="evenodd"
        d="M -83.119 220.092 L -83.185 220.092 C -84.071 220.092 -84.835 220.092 -85.447 220.174 C -86.102 220.262 -86.731 220.461 -87.24 220.971 C -87.75 221.48 -87.949 222.109 -88.037 222.764 C -88.119 223.376 -88.119 224.14 -88.119 225.026 L -88.119 225.092 L -88.119 228.592 L -88.119 234.263 C -89.284 234.674 -90.119 235.786 -90.119 237.092 C -90.119 238.749 -88.776 240.092 -87.119 240.092 L -76.123 240.092 L -76.119 240.092 C -74.462 240.092 -73.119 238.749 -73.119 237.092 L -73.119 227.092 L -73.119 225.092 L -72.619 225.092 C -71.238 225.092 -70.119 223.973 -70.119 222.592 C -70.119 221.211 -71.238 220.092 -72.619 220.092 C -72.723 220.092 -72.825 220.098 -72.926 220.111 C -72.988 220.098 -73.053 220.092 -73.119 220.092 L -83.119 220.092 Z M -78.948 238.092 C -79.059 237.779 -79.119 237.443 -79.119 237.092 L -79.119 236.092 L -87.119 236.092 C -87.671 236.092 -88.119 236.54 -88.119 237.092 C -88.119 237.644 -87.671 238.092 -87.119 238.092 L -78.948 238.092 Z M -73.119 223.092 L -72.619 223.092 C -72.343 223.092 -72.119 222.868 -72.119 222.592 C -72.119 222.316 -72.343 222.092 -72.619 222.092 C -72.895 222.092 -73.119 222.316 -73.119 222.592 L -73.119 223.092 Z M -84.119 225.092 C -84.119 224.54 -83.671 224.092 -83.119 224.092 L -78.119 224.092 C -77.567 224.092 -77.119 224.54 -77.119 225.092 C -77.119 225.644 -77.567 226.092 -78.119 226.092 L -83.119 226.092 C -83.671 226.092 -84.119 225.644 -84.119 225.092 Z M -83.119 228.092 C -83.671 228.092 -84.119 228.54 -84.119 229.092 C -84.119 229.644 -83.671 230.092 -83.119 230.092 L -78.119 230.092 C -77.567 230.092 -77.119 229.644 -77.119 229.092 C -77.119 228.54 -77.567 228.092 -78.119 228.092 L -83.119 228.092 Z"
        style="fill: rgb(50, 50, 50);" id="object-1"
        transform="matrix(1, 0, 0, 1, 0, 2.842170943040401e-14)" />
</svg>
