<?xml version="1.0" standalone="no"?>
<!DOCTYPE svg PUBLIC "-//W3C//DTD SVG 20010904//EN"
 "http://www.w3.org/TR/2001/REC-SVG-20010904/DTD/svg10.dtd">
<svg version="1.0" xmlns="http://www.w3.org/2000/svg"
 width="570.000000pt" height="570.000000pt" viewBox="0 0 570.000000 570.000000"
 preserveAspectRatio="xMidYMid meet">

<g transform="translate(0.000000,570.000000) scale(0.100000,-0.100000)"
fill="#000000" stroke="none">
<path d="M1370 5403 c-137 -14 -330 -69 -452 -129 -254 -124 -470 -377 -562
-654 -58 -175 -56 -116 -56 -1813 0 -1714 -4 -1610 62 -1795 76 -216 236 -423
426 -549 86 -58 266 -136 387 -169 67 -18 132 -19 1652 -22 1789 -3 1661 -8
1873 77 351 141 577 390 677 746 l28 100 2 1550 c2 965 -1 1583 -7 1637 -54
474 -369 849 -820 977 -58 16 -140 35 -183 40 -72 10 -2932 14 -3027 4z m3073
-174 c188 -37 336 -108 486 -231 176 -146 296 -392 321 -661 15 -155 9 -1549
-6 -1554 -8 -3 -9 -17 -3 -46 12 -61 11 -1449 -1 -1523 -59 -366 -340 -667
-708 -760 l-96 -24 -1595 2 c-1775 3 -1604 -3 -1800 70 -221 83 -410 271 -513
511 -79 182 -73 33 -73 1817 l0 1595 22 80 c27 102 90 247 139 321 81 122 229
251 369 321 84 43 244 92 329 102 39 5 737 6 1551 4 1408 -5 1485 -6 1578 -24z"/>
<path d="M2825 5050 c-182 -22 -330 -122 -431 -293 -59 -100 -75 -164 -87
-350 l-11 -168 -45 -20 c-25 -11 -60 -31 -78 -45 -27 -20 -34 -22 -39 -11 -7
20 -147 119 -219 155 -82 42 -143 55 -255 54 -275 -2 -464 -129 -520 -349 -35
-133 -18 -298 41 -415 41 -81 113 -180 163 -223 l49 -44 -26 -58 c-59 -133
-91 -268 -108 -450 -20 -214 19 -490 89 -646 l29 -63 -56 -61 c-167 -182 -241
-442 -181 -634 25 -82 79 -174 130 -220 52 -47 159 -103 236 -123 80 -21 225
-20 317 0 98 22 200 75 267 140 l57 54 59 -35 c32 -20 105 -50 161 -68 l101
-31 16 -65 c18 -73 76 -178 144 -263 52 -65 173 -155 221 -164 47 -10 127 35
198 108 73 77 166 232 189 314 l16 61 82 26 c44 15 117 45 160 66 l79 40 37
-32 c69 -58 150 -100 261 -134 91 -27 126 -33 202 -33 218 1 347 60 431 199
147 242 99 556 -120 781 l-53 55 24 50 c57 118 104 351 105 521 0 180 -50 447
-115 606 l-25 60 25 20 c31 24 140 168 167 221 115 227 97 490 -45 644 -95
104 -189 143 -359 151 -106 4 -124 2 -200 -21 -100 -32 -189 -83 -269 -155
l-58 -53 -38 25 c-21 14 -67 35 -103 47 -94 31 -96 34 -49 82 70 73 125 190
131 277 l2 40 151 0 151 0 30 -31 c16 -17 55 -53 87 -80 76 -64 103 -65 135
-6 12 23 22 47 22 52 0 6 -36 46 -81 90 l-81 78 88 88 c57 57 85 92 81 102 -6
16 -89 77 -105 77 -5 0 -54 -49 -108 -110 l-99 -110 -127 0 c-69 0 -133 -3
-142 -6 -10 -4 -22 8 -39 43 -39 75 -136 167 -225 210 l-76 38 -145 2 c-80 1
-177 -2 -216 -7z m356 -167 c57 -26 109 -71 148 -130 26 -40 31 -56 31 -110 0
-112 -48 -205 -146 -283 -31 -25 -75 -61 -97 -80 l-39 -35 4 -160 4 -160 -230
4 c-155 2 -249 -1 -286 -9 -71 -15 -163 -67 -223 -125 -90 -87 -127 -170 -127
-286 0 -36 -3 -87 -6 -113 l-7 -46 -52 0 c-28 0 -74 -7 -101 -15 -57 -17 -120
-19 -184 -4 -50 11 -260 108 -260 120 0 14 140 210 193 272 119 137 340 286
557 376 107 45 113 51 120 121 3 33 2 61 -2 62 -12 4 -11 287 1 326 30 98 121
198 230 253 77 38 141 48 296 45 106 -2 138 -6 176 -23z m1073 -682 c43 -11
79 -21 80 -23 28 -54 65 -195 72 -273 9 -93 -9 -173 -57 -264 -40 -75 -95
-151 -108 -151 -4 0 -15 16 -24 35 -71 150 -228 334 -399 471 -48 38 -88 74
-88 81 0 14 85 90 125 111 91 47 243 52 399 13z m-2417 -18 c76 -32 153 -86
153 -107 0 -7 -15 -19 -32 -28 -41 -19 -208 -169 -268 -240 -84 -98 -177 -223
-199 -266 -12 -24 -27 -42 -34 -39 -21 6 -107 120 -132 174 -36 75 -48 145
-43 243 8 127 64 230 143 260 70 27 153 40 245 36 79 -2 107 -8 167 -33z
m1652 -152 c114 -59 292 -194 369 -279 116 -129 222 -275 222 -304 -1 -21
-274 -177 -287 -164 -4 4 -2 11 6 15 16 10 -99 40 -188 48 -36 3 -69 11 -73
17 -4 6 -8 27 -8 47 0 47 -25 130 -62 204 -21 42 -58 87 -122 149 l-91 89 0
141 0 142 95 -42 c52 -22 115 -51 139 -63z m-388 -275 c25 -9 73 -38 105 -64
49 -40 67 -63 107 -142 54 -109 66 -172 67 -346 0 -124 -13 -212 -40 -264 -24
-46 -94 -112 -150 -141 -44 -23 -55 -24 -355 -29 -291 -6 -313 -8 -364 -28
-101 -42 -179 -110 -221 -192 -25 -48 -50 -191 -50 -281 0 -38 -4 -69 -9 -69
-43 0 -205 110 -260 177 -17 20 -43 62 -58 93 -27 54 -28 59 -28 226 l0 170
34 65 c58 110 121 180 201 221 44 23 52 23 438 28 l394 5 19 24 c10 13 19 30
19 38 0 24 -29 72 -50 83 -13 7 -109 10 -273 9 l-252 -1 -3 101 c-2 84 1 109
17 147 41 92 105 151 194 180 65 21 456 14 518 -10z m-1423 -512 c53 -25 111
-56 129 -70 l33 -25 -24 -32 c-46 -61 -95 -172 -111 -255 -13 -64 -16 -120
-13 -235 5 -165 19 -222 73 -293 15 -20 25 -37 24 -38 -2 -2 -29 -16 -59 -33
-30 -16 -86 -49 -123 -72 -38 -23 -70 -41 -72 -39 -10 12 -57 146 -73 209 -35
131 -46 229 -46 394 -1 182 14 268 69 421 19 53 37 99 40 105 12 19 59 8 153
-37z m2516 -36 c96 -264 119 -541 66 -789 -21 -100 -66 -247 -80 -263 -7 -7
-130 55 -238 121 l-23 14 30 52 c51 90 81 219 81 350 0 132 -20 226 -76 351
-54 122 -54 117 10 160 71 47 133 74 172 75 30 1 33 -2 58 -71z m-512 -68 c52
-53 79 -91 113 -162 51 -106 65 -166 65 -283 0 -201 -80 -350 -227 -424 -60
-30 -149 -39 -473 -46 -240 -5 -290 -8 -320 -23 -72 -35 -63 -120 15 -134 22
-4 140 -7 263 -6 122 0 225 -2 228 -5 3 -3 6 -41 7 -85 0 -67 -4 -88 -26 -133
-39 -80 -81 -124 -145 -156 l-57 -28 -235 0 -235 0 -59 30 c-87 44 -160 115
-196 190 -40 84 -53 185 -48 382 3 148 5 161 30 208 33 63 70 98 133 127 48
21 66 23 375 29 179 4 340 12 358 18 57 17 119 59 155 104 86 105 121 205 133
375 l7 92 36 0 c31 0 44 -9 103 -70z m-1667 -1020 c51 -27 111 -52 132 -56
l40 -6 11 -96 c14 -123 50 -196 141 -291 66 -68 173 -138 252 -166 23 -8 72
-15 110 -15 l69 0 0 -116 0 -117 -72 7 c-164 15 -417 111 -598 228 -152 97
-376 324 -467 472 l-31 49 107 53 c58 30 126 65 150 79 24 14 49 25 54 25 6 0
52 -22 102 -50z m1877 2 c99 -51 188 -109 194 -126 3 -8 -9 -35 -28 -60 -146
-201 -264 -326 -402 -425 -94 -68 -214 -134 -228 -125 -4 3 -8 1 -8 -4 0 -27
-354 -132 -446 -132 l-24 0 0 121 0 121 27 -5 c59 -11 202 11 267 41 111 52
223 176 258 285 5 18 13 86 16 151 l7 119 55 12 c30 6 80 23 110 38 78 36 115
34 202 -11z m-2423 -184 c9 -23 54 -91 140 -215 54 -78 236 -256 320 -313 l65
-43 -40 -34 c-21 -18 -68 -48 -103 -65 -55 -28 -77 -33 -157 -36 -78 -4 -107
0 -186 22 -111 32 -135 47 -170 112 -69 128 -77 317 -18 439 21 43 115 155
131 155 5 0 14 -10 18 -22z m2887 -135 c47 -94 63 -195 46 -295 -16 -89 -56
-181 -94 -213 -68 -58 -249 -83 -362 -50 -67 20 -200 95 -204 117 -2 10 5 19
18 23 33 11 294 270 361 358 32 43 76 107 96 142 l38 65 33 -37 c18 -21 49
-70 68 -110z m-1501 -708 c39 0 103 3 143 7 71 6 73 6 66 -15 -23 -76 -100
-186 -157 -228 -39 -28 -40 -28 -70 -11 -16 9 -50 41 -76 70 -45 51 -121 167
-121 184 0 4 33 5 73 1 39 -5 104 -8 142 -8z"/>
<path d="M2903 4705 c-33 -33 -35 -39 -30 -82 4 -38 12 -54 41 -80 38 -35 66
-40 113 -22 51 19 73 48 73 97 0 38 -5 50 -39 83 -33 33 -45 39 -81 39 -35 0
-48 -6 -77 -35z"/>
<path d="M2596 3645 c-59 -31 -71 -76 -36 -133 19 -31 71 -62 105 -62 8 0 33
16 55 36 33 30 40 43 40 74 0 58 -39 100 -93 100 -23 0 -55 -7 -71 -15z"/>
<path d="M2190 2630 c-6 -11 -8 -20 -6 -20 3 0 10 9 16 20 6 11 8 20 6 20 -3
0 -10 -9 -16 -20z"/>
<path d="M4191 2734 c0 -11 3 -14 6 -6 3 7 2 16 -1 19 -3 4 -6 -2 -5 -13z"/>
<path d="M4180 2668 c0 -54 -24 -182 -50 -266 -11 -35 -20 -68 -20 -73 0 -21
42 19 57 53 12 26 19 34 25 25 5 -6 5 8 2 32 -6 39 -5 44 9 38 15 -5 17 1 17
46 0 29 -5 58 -11 64 -14 14 -14 96 0 101 15 5 3 22 -15 22 -10 0 -14 -12 -14
-42z"/>
<path d="M3034 1966 c-55 -24 -79 -80 -54 -126 15 -28 74 -60 110 -60 26 0 42
9 72 40 21 23 38 48 38 56 0 31 -33 76 -65 90 -42 17 -61 17 -101 0z"/>
<path d="M2121 1577 c13 -13 26 -22 28 -20 2 2 24 -8 48 -22 64 -38 52 -23
-20 24 -71 46 -93 53 -56 18z"/>
<path d="M2262 1491 c6 -11 17 -17 23 -14 7 2 25 -7 42 -21 16 -13 60 -40 99
-58 41 -20 62 -34 51 -36 -9 -2 -17 -7 -17 -11 0 -8 108 -6 116 1 6 6 -146 82
-206 103 -24 9 -54 22 -65 29 -11 7 -28 15 -37 19 -15 5 -16 4 -6 -12z"/>
<path d="M3941 1995 c-32 -47 -373 -379 -422 -412 -21 -14 -39 -32 -39 -40 0
-8 -4 -12 -9 -8 -5 3 -15 -1 -23 -7 -7 -7 -26 -18 -42 -23 -28 -10 -55 -39
-45 -49 10 -10 49 6 49 20 0 8 7 14 15 14 8 0 15 4 15 9 0 5 16 9 36 9 20 0
40 6 45 13 6 10 11 10 21 1 11 -8 17 -6 27 10 11 17 15 18 22 7 6 -10 9 -10 9
-1 0 6 9 12 20 12 11 0 20 7 20 15 0 8 7 15 15 15 20 0 64 50 65 73 0 9 5 17
11 17 7 0 9 9 6 21 -3 11 -3 27 0 35 6 17 30 18 36 2 2 -7 3 -3 1 8 -2 12 3
27 11 34 18 15 20 34 3 24 -7 -4 -8 -3 -4 5 4 6 12 9 17 6 5 -4 14 4 20 17 13
29 68 57 101 51 20 -4 27 1 37 24 17 42 21 75 13 105 l-7 27 -24 -34z"/>
<path d="M3526 1511 c-4 -7 -5 -15 -2 -18 9 -9 19 4 14 18 -4 11 -6 11 -12 0z"/>
<path d="M1690 1543 c0 -13 161 -197 184 -210 33 -19 55 -15 25 5 -15 9 -46
39 -70 66 -71 80 -139 148 -139 139z"/>
<path d="M3947 1405 c-75 -64 -95 -86 -59 -66 22 13 149 130 141 131 -3 0 -40
-29 -82 -65z"/>
<path d="M2920 988 c-22 -46 -33 -73 -24 -60 9 12 21 22 26 22 21 0 40 32 44
75 2 25 2 45 -1 45 -3 0 -23 -37 -45 -82z"/>
</g>
</svg>
