<?xml version="1.0" encoding="utf-8"?>
<svg xmlns="http://www.w3.org/2000/svg" viewBox="312.334 210.905 20 20" width="40px" height="40px">
    <path fill-rule="evenodd" clip-rule="evenodd"
        d="M 324.334 216.905 C 324.887 216.905 325.334 217.353 325.334 217.905 L 325.334 223.905 C 325.334 224.458 324.887 224.905 324.334 224.905 C 323.782 224.905 323.334 224.458 323.334 223.905 L 323.334 217.905 C 323.334 217.353 323.782 216.905 324.334 216.905 Z M 320.334 216.905 C 320.887 216.905 321.334 217.353 321.334 217.905 L 321.334 223.905 C 321.334 224.458 320.887 224.905 320.334 224.905 C 319.782 224.905 319.334 224.458 319.334 223.905 L 319.334 217.905 C 319.334 217.353 319.782 216.905 320.334 216.905 Z M 317.585 211.293 C 318.883 211.005 320.459 210.905 322.334 210.905 C 324.21 210.905 325.786 211.005 327.084 211.293 C 328.394 211.584 329.483 212.081 330.321 212.919 C 331.158 213.757 331.655 214.845 331.947 216.155 C 332.235 217.454 332.334 219.03 332.334 220.905 C 332.334 222.781 332.235 224.357 331.947 225.655 C 331.655 226.965 331.158 228.054 330.321 228.892 C 329.483 229.729 328.394 230.226 327.084 230.518 C 325.786 230.806 324.21 230.905 322.334 230.905 C 320.459 230.905 318.883 230.806 317.585 230.518 C 316.274 230.226 315.186 229.729 314.348 228.892 C 313.51 228.054 313.013 226.965 312.722 225.655 C 312.434 224.357 312.334 222.781 312.334 220.905 C 312.334 219.03 312.434 217.454 312.722 216.155 C 313.013 214.845 313.51 213.757 314.348 212.919 C 315.186 212.081 316.274 211.584 317.585 211.293 Z"
        fill="#323232" id="object-1" />
</svg>
