<?xml version="1.0" encoding="utf-8"?>
<svg xmlns="http://www.w3.org/2000/svg" viewBox="260.605 225.264 20 20" width="40px" height="40px">
    <path fill-rule="evenodd" clip-rule="evenodd"
        d="M 265.855 225.652 C 267.154 225.363 268.729 225.264 270.605 225.264 C 272.481 225.264 274.056 225.363 275.355 225.652 C 276.665 225.943 277.754 226.44 278.591 227.278 C 279.429 228.115 279.926 229.204 280.217 230.514 C 280.506 231.813 280.605 233.388 280.605 235.264 C 280.605 237.14 280.506 238.715 280.217 240.014 C 279.926 241.324 279.429 242.413 278.591 243.25 C 277.754 244.088 276.665 244.585 275.355 244.876 C 274.056 245.165 272.481 245.264 270.605 245.264 C 268.729 245.264 267.154 245.165 265.855 244.876 C 264.545 244.585 263.456 244.088 262.619 243.25 C 261.781 242.413 261.284 241.324 260.993 240.014 C 260.704 238.715 260.605 237.14 260.605 235.264 C 260.605 233.388 260.704 231.813 260.993 230.514 C 261.284 229.204 261.781 228.115 262.619 227.278 C 263.456 226.44 264.545 225.943 265.855 225.652 Z M 274.201 233.596 C 275.492 234.333 275.492 236.195 274.201 236.932 L 269.759 239.471 C 268.576 240.147 267.105 239.293 267.105 237.931 L 267.105 232.597 C 267.105 231.235 268.576 230.382 269.759 231.057 L 274.201 233.596 Z"
        fill="#323232" id="object-0" />
</svg>
