<?xml version="1.0" encoding="utf-8"?>
<svg xmlns="http://www.w3.org/2000/svg" viewBox="273.191 252.178 20 20" width="40px" height="40px">
    <path fill-rule="evenodd" clip-rule="evenodd"
        d="M 283.484 264.471 C 283.094 264.862 283.094 265.495 283.484 265.885 C 283.875 266.276 284.508 266.276 284.899 265.885 L 287.812 262.972 C 287.827 262.957 287.841 262.942 287.855 262.926 C 288.061 262.743 288.191 262.476 288.191 262.178 C 288.191 261.881 288.061 261.614 287.855 261.43 C 287.841 261.415 287.827 261.399 287.812 261.384 L 284.899 258.471 C 284.508 258.081 283.875 258.081 283.484 258.471 C 283.094 258.862 283.094 259.495 283.484 259.885 L 284.777 261.178 L 279.191 261.178 C 278.639 261.178 278.191 261.626 278.191 262.178 C 278.191 262.731 278.639 263.178 279.191 263.178 L 284.777 263.178 L 283.484 264.471 Z M 278.442 252.566 C 279.74 252.278 281.316 252.178 283.191 252.178 C 285.067 252.178 286.643 252.278 287.941 252.566 C 289.251 252.857 290.34 253.354 291.178 254.192 C 292.015 255.03 292.512 256.118 292.804 257.428 C 293.092 258.727 293.191 260.303 293.191 262.178 C 293.191 264.054 293.092 265.63 292.804 266.928 C 292.512 268.238 292.015 269.327 291.178 270.165 C 290.34 271.002 289.251 271.499 287.941 271.791 C 286.643 272.079 285.067 272.178 283.191 272.178 C 281.316 272.178 279.74 272.079 278.442 271.791 C 277.131 271.499 276.043 271.002 275.205 270.165 C 274.367 269.327 273.87 268.238 273.579 266.928 C 273.291 265.63 273.191 264.054 273.191 262.178 C 273.191 260.303 273.291 258.727 273.579 257.428 C 273.87 256.118 274.367 255.03 275.205 254.192 C 276.043 253.354 277.131 252.857 278.442 252.566 Z"
        fill="#323232" id="object-6" />
</svg>
