<?xml version="1.0" encoding="utf-8"?>
<svg xmlns="http://www.w3.org/2000/svg" viewBox="310.78 251.488 20 20" width="40px" height="40px">
    <path fill-rule="evenodd" clip-rule="evenodd"
        d="M 318.488 257.781 C 318.097 257.391 317.464 257.391 317.073 257.781 C 316.683 258.172 316.683 258.805 317.073 259.195 L 319.366 261.488 L 317.073 263.781 C 316.683 264.172 316.683 264.805 317.073 265.195 C 317.464 265.586 318.097 265.586 318.488 265.195 L 320.78 262.903 L 323.073 265.195 C 323.464 265.586 324.097 265.586 324.488 265.195 C 324.878 264.805 324.878 264.172 324.488 263.781 L 322.195 261.488 L 324.488 259.195 C 324.878 258.805 324.878 258.172 324.488 257.781 C 324.097 257.391 323.464 257.391 323.073 257.781 L 320.78 260.074 L 318.488 257.781 Z M 316.031 251.876 C 317.329 251.588 318.905 251.488 320.78 251.488 C 322.656 251.488 324.232 251.588 325.53 251.876 C 326.84 252.167 327.929 252.664 328.767 253.502 C 329.604 254.34 330.101 255.428 330.393 256.738 C 330.681 258.037 330.78 259.613 330.78 261.488 C 330.78 263.364 330.681 264.94 330.393 266.238 C 330.101 267.548 329.604 268.637 328.767 269.475 C 327.929 270.312 326.84 270.809 325.53 271.101 C 324.232 271.389 322.656 271.488 320.78 271.488 C 318.905 271.488 317.329 271.389 316.031 271.101 C 314.72 270.809 313.632 270.312 312.794 269.475 C 311.956 268.637 311.459 267.548 311.168 266.238 C 310.88 264.94 310.78 263.364 310.78 261.488 C 310.78 259.613 310.88 258.037 311.168 256.738 C 311.459 255.428 311.956 254.34 312.794 253.502 C 313.632 252.664 314.72 252.167 316.031 251.876 Z"
        fill="#323232" id="object-2" />
</svg>
